# xmcd
#
# Track frame offsets:
#	150
#	16571
#	33022
#	47673
#	62793
#	77039
#	91551
#	107303
#	123598
#	146724
#	158020
#	168133
#	185388
#	203450
#	214969
#	232023
#
# Disc length: 3261 seconds
# Revision: 1
# Processed by: cddbd v1.5.2PL0 Copyright (c) Steve Scherf et al.
# Submitted via: dBpowerAMP V12.0
#
DISCID=bd0cbb10
DTITLE=Pinchitos Caliente - Pinchitos Caliente
DYEAR=2003
DGENRE=Tex-Mex
TTITLE0=Soy De San Louis
TTITLE1=Little Bit Is Better Than Nada
TTITLE2=Woltercito
TTITLE3=Laredo Rose
TTITLE4=I Love My Rancho Grande
TTITLE5=Bailando
TTITLE6=Volver
TTITLE7=He Is A Tejano
TTITLE8=He'll Have To Go
TTITLE9=Dinero
TTITLE10=El Pantalo Blue Jean
TTITLE11=Wild Side Of Life
TTITLE12=Mentiras
TTITLE13=Si Asin Lo Crees
TTITLE14=N More Running Around
TTITLE15=Wated Days and Wated Nights
EXTD=
EXTT0=
EXTT1=
EXTT2=
EXTT3=
EXTT4=
EXTT5=
EXTT6=
EXTT7=
EXTT8=
EXTT9=
EXTT10=
EXTT11=
EXTT12=
EXTT13=
EXTT14=
EXTT15=
PLAYORDER=
